<svg width="248" height="248" viewBox="0 0 248 248" fill="none" xmlns="http://www.w3.org/2000/svg">
<path d="M36.1667 93V155C36.1667 191.167 59.4167 211.833 87.8334 211.833" stroke="#14BFA6" stroke-width="38.75" stroke-linecap="round" stroke-linejoin="round"/>
<path d="M85.25 211.833C113.667 211.833 129.167 193.75 129.167 165.333V134.333C129.167 122.001 134.066 110.173 142.786 101.453C151.507 92.7324 163.334 87.8333 175.667 87.8333C187.999 87.8333 199.827 92.7324 208.547 101.453C217.268 110.173 222.167 122.001 222.167 134.333V211.833" stroke="#0A5C45" stroke-width="38.75" stroke-linecap="round" stroke-linejoin="round"/>
<path d="M36.1667 63.2917C48.294 63.2917 58.125 53.4606 58.125 41.3333C58.125 29.2061 48.294 19.375 36.1667 19.375C24.0395 19.375 14.2084 29.2061 14.2084 41.3333C14.2084 53.4606 24.0395 63.2917 36.1667 63.2917Z" fill="#14BFA6"/>
</svg>
