<svg width="576" height="164" viewBox="0 0 576 164" fill="none" xmlns="http://www.w3.org/2000/svg">
<path d="M15.184 159.952V45.968H48.464V159.952H15.184ZM-1.9908e-05 70.512V45.968H48.464V70.512H-1.9908e-05ZM28.08 34.736C21.84 34.736 17.1946 33.1414 14.144 29.952C11.232 26.624 9.77598 22.464 9.77598 17.472C9.77598 12.3413 11.232 8.18135 14.144 4.99201C17.1946 1.66401 21.84 1.52588e-05 28.08 1.52588e-05C34.32 1.52588e-05 38.896 1.66401 41.808 4.99201C44.8586 8.18135 46.384 12.3413 46.384 17.472C46.384 22.464 44.8586 26.624 41.808 29.952C38.896 33.1414 34.32 34.736 28.08 34.736Z" fill="#14BFA6"/>
<path d="M79.2447 159.952V45.968H105.661V94.848H103.789C103.789 83.2 105.245 73.4934 108.157 65.728C111.207 57.9627 115.783 52.1387 121.885 48.256C127.986 44.3734 135.405 42.432 144.141 42.432H145.597C158.909 42.432 169.031 46.8 175.965 55.536C183.037 64.1334 186.573 77.2374 186.573 94.848V159.952H153.293V92.976C153.293 86.8747 151.49 81.8827 147.885 78C144.279 74.1174 139.426 72.176 133.325 72.176C127.085 72.176 122.023 74.1867 118.141 78.208C114.397 82.0907 112.525 87.2214 112.525 93.6V159.952H79.2447ZM253.412 163.488C240.239 163.488 230.116 159.259 223.044 150.8C215.972 142.203 212.436 129.307 212.436 112.112V45.968H245.716V113.776C245.716 119.877 247.45 124.731 250.916 128.336C254.383 131.941 259.028 133.744 264.852 133.744C270.815 133.744 275.668 131.872 279.412 128.128C283.156 124.384 285.028 119.323 285.028 112.944V45.968H318.308V159.952H291.892V111.904H294.18C294.18 123.413 292.655 133.051 289.604 140.816C286.692 148.443 282.324 154.128 276.5 157.872C270.676 161.616 263.466 163.488 254.868 163.488H253.412ZM400.787 161.408C389.277 161.408 379.987 160.021 372.915 157.248C365.843 154.336 360.643 149.552 357.315 142.896C354.125 136.101 352.531 126.949 352.531 115.44V15.184H383.523V116.688C383.523 122.096 384.909 126.256 387.683 129.168C390.595 131.941 394.685 133.328 399.955 133.328H416.803V161.408H400.787ZM335.267 70.304V45.968H416.803V70.304H335.267ZM439.182 159.952V45.968H465.598V94.848H464.974C464.974 78.7627 468.372 66.352 475.166 57.616C482.1 48.88 492.084 44.512 505.118 44.512H509.486V73.216H501.166C492.014 73.216 484.942 75.712 479.95 80.704C474.958 85.5574 472.462 92.6294 472.462 101.92V159.952H439.182ZM542.537 159.952V45.968H575.817V159.952H542.537ZM527.353 70.512V45.968H575.817V70.512H527.353ZM555.433 34.736C549.193 34.736 544.548 33.1414 541.497 29.952C538.585 26.624 537.129 22.464 537.129 17.472C537.129 12.3413 538.585 8.18135 541.497 4.99201C544.548 1.66401 549.193 1.52588e-05 555.433 1.52588e-05C561.673 1.52588e-05 566.249 1.66401 569.161 4.99201C572.212 8.18135 573.737 12.3413 573.737 17.472C573.737 22.464 572.212 26.624 569.161 29.952C566.249 33.1414 561.673 34.736 555.433 34.736Z" fill="#0A5C45"/>
</svg>
